<svg id="svg" version="1.1" xmlns="http://www.w3.org/2000/svg" xmlns:xlink="http://www.w3.org/1999/xlink" width="400" height="398.2222222222222" viewBox="0, 0, 400,398.2222222222222"><g id="svgg"><path id="path0" d="M0.000 199.203 L 0.000 398.406 200.000 398.406 L 400.000 398.406 400.000 199.203 L 400.000 0.000 200.000 0.000 L 0.000 0.000 0.000 199.203 M105.588 151.221 C 105.801 151.783,105.976 154.281,105.976 156.772 C 105.976 161.852,105.982 161.862,109.243 161.862 C 111.689 161.862,111.952 161.387,111.952 156.966 C 111.952 152.723,112.211 152.253,114.147 152.989 C 115.113 153.357,115.139 153.473,115.139 157.334 C 115.139 161.785,115.200 161.868,118.385 161.824 C 120.633 161.793,120.717 161.644,120.723 157.646 C 120.730 153.337,120.930 152.884,122.751 153.058 L 124.104 153.187 124.216 157.600 C 124.389 164.438,121.337 166.763,114.765 164.798 C 113.293 164.357,112.826 164.358,111.976 164.801 C 110.635 165.501,107.679 165.483,105.635 164.761 C 104.207 164.258,103.856 164.257,102.895 164.759 C 101.476 165.499,98.368 165.500,96.597 164.760 C 95.386 164.254,95.006 164.254,93.572 164.760 C 91.510 165.487,89.203 165.499,87.508 164.791 C 86.387 164.322,85.949 164.327,84.480 164.824 C 83.312 165.219,81.985 165.327,80.326 165.163 C 73.267 164.465,69.945 165.009,68.603 167.080 C 66.411 170.464,61.083 171.547,56.773 169.485 C 53.391 167.866,54.627 166.356,58.901 166.882 C 65.327 167.673,65.723 167.245,65.731 159.511 C 65.738 153.030,65.898 152.505,67.729 152.968 C 68.685 153.210,68.734 153.377,68.954 157.098 C 69.217 161.566,69.372 161.814,71.926 161.852 C 74.569 161.892,74.980 161.233,74.845 157.163 C 74.721 153.398,74.904 152.988,76.709 152.988 C 78.338 152.988,78.441 153.272,78.585 158.167 L 78.685 161.554 80.446 161.680 C 83.981 161.932,84.021 161.885,84.149 157.284 C 84.260 153.323,84.288 153.215,85.259 152.972 C 87.101 152.512,87.251 152.810,87.251 156.935 C 87.251 161.469,87.430 161.753,90.290 161.753 C 93.295 161.753,93.625 161.278,93.625 156.958 C 93.625 153.786,93.712 153.368,94.448 152.974 C 95.984 152.152,96.414 153.079,96.414 157.206 C 96.414 161.471,96.621 161.753,99.746 161.753 C 102.523 161.753,102.789 161.261,102.789 156.121 C 102.789 153.712,102.974 151.394,103.201 150.970 C 103.797 149.857,105.122 149.996,105.588 151.221 M137.577 152.643 C 140.806 153.292,141.833 154.707,141.833 158.512 C 141.833 160.947,141.933 161.333,142.626 161.553 C 143.991 161.986,144.223 161.420,144.229 157.646 C 144.237 152.875,144.166 152.954,148.874 152.488 C 156.221 151.761,158.982 153.114,159.596 157.743 C 160.334 163.310,154.501 166.973,148.315 164.827 C 146.899 164.336,146.518 164.328,145.925 164.778 C 145.537 165.072,144.639 165.319,143.930 165.326 C 142.720 165.338,141.975 166.081,140.406 168.841 C 139.624 170.215,133.511 170.824,130.384 169.838 C 126.077 168.480,126.775 166.292,131.342 166.838 C 135.385 167.321,138.048 166.965,138.048 165.942 C 138.048 165.213,137.815 165.161,135.060 165.272 C 129.253 165.506,125.978 162.828,126.399 158.190 C 126.855 153.156,130.679 151.258,137.577 152.643 M131.210 155.776 C 129.482 156.473,129.468 161.044,131.193 161.507 C 132.476 161.851,137.168 161.793,137.746 161.426 C 138.848 160.727,138.829 157.518,137.717 156.406 C 136.625 155.314,133.184 154.981,131.210 155.776 M148.347 156.398 C 147.261 157.484,147.260 160.756,148.346 161.448 C 149.019 161.877,153.964 161.817,155.153 161.364 C 156.196 160.968,156.667 157.925,155.870 156.733 C 154.736 155.034,149.925 154.820,148.347 156.398 M93.955 169.144 C 93.798 170.486,93.150 170.782,92.277 169.910 C 91.376 169.009,91.476 168.162,92.530 167.758 C 93.679 167.317,94.120 167.746,93.955 169.144 M97.929 169.289 C 97.844 170.013,97.572 170.319,97.012 170.319 C 96.066 170.319,95.701 168.788,96.437 167.901 C 97.126 167.071,98.083 167.961,97.929 169.289 M111.997 168.884 C 112.183 169.795,112.104 170.239,111.728 170.384 C 110.883 170.708,110.359 170.166,110.359 168.967 C 110.359 166.871,111.573 166.809,111.997 168.884 M116.733 168.878 C 116.733 170.026,115.684 170.633,114.427 170.214 C 113.916 170.044,113.760 168.445,114.210 167.995 C 115.044 167.160,116.733 167.751,116.733 168.878 M123.904 168.878 C 123.904 169.962,122.399 170.871,121.723 170.195 C 120.914 169.387,121.577 167.729,122.709 167.729 C 123.761 167.729,123.904 167.867,123.904 168.878 M374.701 170.671 C 378.282 171.769,377.366 177.536,373.495 178.263 C 369.932 178.931,367.682 177.238,367.757 173.945 C 367.820 171.167,371.490 168.264,373.108 169.713 C 373.546 170.105,374.263 170.536,374.701 170.671 M271.315 170.148 C 273.364 170.568,274.107 171.300,274.889 173.670 C 275.719 176.185,274.209 180.077,272.401 180.082 C 271.913 180.083,271.000 180.352,270.373 180.680 C 269.745 181.007,268.914 181.275,268.526 181.275 C 268.138 181.275,267.307 181.007,266.679 180.680 C 266.051 180.352,265.132 180.083,264.636 180.082 C 261.025 180.072,261.103 171.436,264.723 170.469 C 265.610 170.232,266.693 169.885,267.131 169.697 C 267.570 169.510,268.287 169.452,268.725 169.569 C 269.163 169.686,270.329 169.946,271.315 170.148 M307.578 170.580 C 310.470 171.589,310.951 178.315,308.223 179.595 C 301.947 182.541,296.799 180.611,296.826 175.324 C 296.851 170.464,301.438 168.440,307.578 170.580 M207.740 170.746 C 208.249 171.255,208.367 172.405,208.367 176.897 C 208.367 182.720,208.539 183.304,209.911 182.115 C 210.418 181.675,211.723 181.268,213.147 181.107 C 214.460 180.959,216.207 180.537,217.030 180.170 C 219.283 179.165,233.363 179.191,235.642 180.205 C 236.510 180.591,238.273 181.016,239.558 181.151 C 240.844 181.285,242.130 181.629,242.416 181.915 C 242.702 182.201,243.809 182.646,244.875 182.902 C 245.941 183.159,246.992 183.585,247.211 183.849 C 247.430 184.114,248.058 184.445,248.606 184.585 C 250.675 185.114,254.490 189.210,256.098 192.629 C 258.811 198.396,258.286 218.970,255.345 222.137 C 254.925 222.590,254.582 223.106,254.582 223.284 C 254.582 223.843,250.221 227.828,249.291 228.119 C 248.804 228.272,247.995 228.718,247.491 229.111 C 246.988 229.504,246.012 229.949,245.323 230.101 C 244.633 230.252,243.844 230.601,243.568 230.877 C 243.293 231.152,242.041 231.506,240.785 231.662 C 239.530 231.819,238.050 232.245,237.496 232.607 C 235.952 233.619,216.203 233.597,214.769 232.581 C 214.236 232.204,212.745 231.776,211.456 231.631 C 210.166 231.485,208.881 231.135,208.600 230.854 C 208.318 230.572,207.335 230.139,206.414 229.891 C 205.493 229.643,204.644 229.192,204.528 228.888 C 204.411 228.584,203.793 228.221,203.154 228.080 C 201.702 227.761,197.302 223.429,196.958 221.980 C 196.819 221.395,196.416 220.584,196.062 220.178 C 195.291 219.292,194.849 176.336,195.597 174.938 C 195.816 174.530,196.479 174.074,197.070 173.926 C 197.661 173.777,198.586 173.308,199.126 172.884 C 199.666 172.459,200.429 172.112,200.822 172.112 C 201.215 172.112,201.807 171.841,202.138 171.510 C 203.539 170.109,206.676 169.681,207.740 170.746 M292.042 171.141 C 292.729 172.949,292.551 228.022,291.853 229.694 L 291.276 231.076 286.176 231.067 C 281.766 231.059,280.941 230.954,280.080 230.293 L 279.084 229.528 279.084 202.902 L 279.084 176.276 279.938 175.360 C 280.753 174.484,282.306 173.502,284.462 172.498 C 289.366 170.214,289.410 170.197,290.747 170.151 C 291.369 170.129,291.775 170.440,292.042 171.141 M62.539 180.074 C 63.031 180.337,64.943 180.797,66.788 181.096 C 68.632 181.394,70.418 181.915,70.757 182.254 C 71.596 183.093,73.945 183.027,75.451 182.122 C 76.134 181.712,77.725 181.262,78.985 181.123 C 80.245 180.983,82.038 180.557,82.969 180.176 C 85.466 179.152,99.578 179.166,101.484 180.194 C 102.191 180.575,103.851 181.000,105.174 181.138 C 106.647 181.292,107.911 181.676,108.433 182.129 C 108.902 182.536,109.772 182.869,110.366 182.869 C 110.960 182.869,111.902 183.227,112.459 183.665 C 113.016 184.104,113.743 184.462,114.073 184.462 C 115.494 184.462,121.514 190.597,121.514 192.046 C 121.514 192.455,121.778 192.937,122.100 193.117 C 123.546 193.926,124.283 226.454,122.929 229.694 L 122.351 231.076 117.210 231.076 C 112.305 231.076,112.020 231.031,111.014 230.099 L 109.960 229.122 109.955 213.664 C 109.949 196.137,110.013 196.738,108.054 196.029 C 107.256 195.741,106.370 195.272,106.086 194.987 C 105.801 194.703,104.719 194.347,103.680 194.198 C 102.642 194.049,101.463 193.637,101.060 193.283 C 99.915 192.279,84.493 192.317,83.377 193.327 C 82.953 193.710,82.150 194.024,81.591 194.024 C 79.649 194.024,79.648 194.030,79.698 212.150 L 79.746 229.163 78.847 230.119 C 77.990 231.031,77.714 231.076,72.902 231.076 L 67.855 231.076 67.171 229.781 C 66.550 228.605,66.499 226.937,66.610 211.672 L 66.733 194.857 65.818 194.441 C 65.315 194.211,64.522 194.024,64.056 194.024 C 63.591 194.024,62.863 193.710,62.440 193.327 C 61.303 192.298,47.445 192.284,45.388 193.309 C 44.638 193.683,43.174 194.098,42.136 194.230 C 41.098 194.362,40.022 194.691,39.746 194.961 C 39.469 195.231,38.645 195.697,37.915 195.995 C 35.910 196.815,35.857 197.284,35.857 213.970 C 35.857 232.869,36.573 231.076,29.028 231.076 C 24.510 231.076,23.721 230.980,23.264 230.378 C 21.974 228.680,22.623 193.227,23.943 193.227 C 24.141 193.227,24.303 192.882,24.303 192.461 C 24.303 192.039,24.751 191.162,25.299 190.511 C 25.847 189.860,26.295 189.201,26.295 189.047 C 26.295 188.659,28.690 186.454,29.112 186.454 C 29.300 186.454,29.638 186.110,29.863 185.690 C 30.088 185.269,30.799 184.810,31.443 184.668 C 32.087 184.527,32.824 184.158,33.080 183.849 C 33.337 183.541,34.200 183.177,35.000 183.041 C 35.800 182.905,36.940 182.452,37.534 182.034 C 38.127 181.617,39.119 181.275,39.738 181.275 C 40.356 181.275,41.843 180.992,43.041 180.646 C 44.239 180.300,46.026 179.863,47.012 179.675 C 49.594 179.183,61.444 179.488,62.539 180.074 M169.323 180.464 C 170.528 180.896,172.120 181.255,172.861 181.262 C 173.602 181.269,174.768 181.612,175.451 182.023 C 176.134 182.435,177.348 182.888,178.147 183.030 C 178.947 183.172,179.820 183.552,180.088 183.875 C 180.356 184.198,180.888 184.462,181.269 184.462 C 181.651 184.462,182.391 184.880,182.914 185.390 C 183.437 185.901,184.178 186.433,184.562 186.573 C 184.945 186.713,185.259 187.090,185.259 187.411 C 185.259 187.732,185.618 188.108,186.056 188.247 C 186.494 188.386,186.853 188.758,186.853 189.073 C 186.853 189.389,187.301 190.036,187.849 190.513 C 188.396 190.989,188.845 191.729,188.845 192.156 C 188.845 192.584,189.248 193.582,189.741 194.375 C 191.132 196.612,191.131 216.453,189.740 218.918 C 189.248 219.792,188.845 220.821,188.845 221.206 C 188.845 221.591,188.486 222.130,188.048 222.403 C 187.610 222.677,187.251 223.111,187.251 223.368 C 187.251 224.139,183.979 227.181,181.894 228.349 C 178.543 230.226,175.653 231.367,173.506 231.661 C 172.410 231.812,171.066 232.234,170.518 232.601 C 169.042 233.588,149.284 233.604,147.782 232.619 C 147.238 232.263,145.812 231.841,144.612 231.681 C 143.412 231.521,141.892 231.070,141.235 230.679 C 140.578 230.287,139.457 229.843,138.745 229.693 C 138.033 229.542,137.450 229.256,137.450 229.057 C 137.450 228.859,136.847 228.444,136.109 228.135 C 133.892 227.209,129.842 222.671,129.313 220.522 C 129.152 219.867,128.821 219.208,128.578 219.057 C 126.978 218.068,127.177 195.476,128.800 193.853 C 129.175 193.477,129.482 192.763,129.482 192.264 C 129.482 191.766,129.836 191.038,130.269 190.647 C 130.701 190.255,131.159 189.609,131.285 189.211 C 131.411 188.813,131.864 188.376,132.291 188.241 C 132.718 188.105,133.068 187.733,133.068 187.415 C 133.068 187.096,133.516 186.631,134.064 186.382 C 134.612 186.132,135.060 185.797,135.060 185.637 C 135.060 185.477,135.732 185.048,136.554 184.685 C 137.375 184.321,138.496 183.767,139.044 183.452 C 139.592 183.138,140.419 182.878,140.883 182.874 C 141.346 182.871,142.181 182.510,142.738 182.072 C 143.304 181.626,144.354 181.275,145.119 181.275 C 145.871 181.275,147.367 180.984,148.443 180.628 C 153.128 179.079,165.192 178.984,169.323 180.464 M354.897 180.236 C 355.562 180.580,357.153 180.977,358.432 181.119 C 359.711 181.260,361.295 181.690,361.952 182.074 C 362.610 182.458,363.802 182.888,364.601 183.030 C 365.401 183.172,366.275 183.552,366.543 183.875 C 366.811 184.198,367.322 184.462,367.678 184.463 C 368.647 184.463,372.904 188.141,373.730 189.692 C 374.007 190.212,374.509 190.841,374.846 191.089 C 375.260 191.394,375.465 192.234,375.478 193.679 L 375.498 195.817 368.389 195.926 C 361.890 196.025,361.170 195.967,360.004 195.246 C 359.302 194.813,357.930 194.339,356.954 194.194 C 355.978 194.049,354.731 193.638,354.183 193.282 C 352.649 192.283,338.485 192.320,337.063 193.327 C 336.521 193.710,335.552 194.024,334.910 194.024 C 331.756 194.024,327.490 196.931,327.490 199.080 L 327.490 200.398 351.295 200.404 C 369.673 200.409,375.327 200.525,376.096 200.914 C 377.622 201.685,377.831 216.933,376.335 218.428 C 376.061 218.703,375.714 219.539,375.565 220.285 C 375.415 221.031,374.936 221.892,374.499 222.198 C 374.062 222.504,373.705 222.984,373.705 223.264 C 373.705 224.045,370.080 227.547,368.653 228.143 C 367.956 228.435,367.276 228.850,367.142 229.067 C 367.008 229.283,366.162 229.659,365.262 229.901 C 364.362 230.144,363.392 230.575,363.107 230.860 C 362.823 231.144,361.550 231.503,360.279 231.657 C 359.008 231.811,357.520 232.236,356.972 232.602 C 355.481 233.597,335.766 233.602,334.263 232.608 C 333.715 232.245,332.281 231.820,331.076 231.663 C 329.871 231.505,328.257 231.055,327.490 230.662 C 326.723 230.268,325.647 229.743,325.100 229.494 C 322.332 228.237,320.968 227.325,319.275 225.598 C 316.637 222.906,316.430 222.630,316.123 221.407 C 315.972 220.804,315.689 220.213,315.494 220.092 C 314.884 219.716,315.096 217.632,315.770 217.373 C 317.189 216.829,329.766 217.111,330.253 217.698 C 330.512 218.009,331.475 218.385,332.393 218.533 C 333.312 218.681,334.512 219.098,335.060 219.461 C 336.529 220.433,354.176 220.445,355.976 219.476 C 356.633 219.121,357.875 218.704,358.736 218.548 C 360.294 218.265,363.470 216.033,363.896 214.921 C 364.504 213.337,364.652 213.347,339.605 213.347 C 315.934 213.347,315.463 213.331,314.889 212.550 C 313.996 211.334,314.257 194.831,315.186 193.766 C 315.540 193.360,315.945 192.540,316.087 191.943 C 316.228 191.347,316.672 190.540,317.073 190.150 C 317.473 189.761,317.913 189.128,318.051 188.745 C 318.189 188.362,318.576 188.048,318.912 188.048 C 319.247 188.048,319.522 187.774,319.522 187.440 C 319.522 187.106,319.946 186.672,320.464 186.475 C 320.982 186.278,321.507 185.851,321.632 185.526 C 321.757 185.201,322.396 184.818,323.053 184.673 C 323.710 184.529,324.457 184.158,324.714 183.849 C 324.970 183.541,325.834 183.177,326.634 183.041 C 327.433 182.905,328.573 182.452,329.167 182.034 C 329.761 181.617,330.926 181.267,331.757 181.257 C 332.587 181.248,333.984 180.964,334.861 180.626 C 338.558 179.202,352.376 178.932,354.897 180.236 M265.918 183.331 C 266.476 183.585,266.932 183.924,266.932 184.083 C 266.932 184.243,267.535 184.487,268.272 184.625 C 269.009 184.763,269.933 185.231,270.326 185.665 C 270.719 186.099,271.453 186.454,271.959 186.454 C 272.936 186.454,274.502 187.849,274.502 188.721 C 274.502 189.008,274.681 189.243,274.900 189.243 C 275.161 189.243,275.299 196.018,275.299 208.771 L 275.299 228.298 274.402 229.682 L 273.506 231.066 268.459 231.071 L 263.412 231.076 262.582 229.734 C 261.423 227.857,261.264 184.866,262.412 183.597 C 263.169 182.761,264.453 182.664,265.918 183.331 M309.482 183.347 C 310.191 184.056,310.156 228.473,309.445 229.880 C 308.799 231.159,299.519 231.636,297.758 230.481 L 296.813 229.862 296.813 209.229 L 296.813 188.595 297.908 187.576 C 298.511 187.015,299.519 186.435,300.148 186.287 C 300.777 186.138,301.551 185.757,301.869 185.439 C 302.186 185.122,302.927 184.745,303.514 184.601 C 304.101 184.458,305.009 184.009,305.532 183.605 C 306.608 182.771,308.765 182.630,309.482 183.347 M153.018 192.697 C 152.048 192.798,150.888 193.138,150.439 193.453 C 149.991 193.767,149.033 194.024,148.310 194.024 C 146.908 194.024,143.411 195.627,141.932 196.948 C 141.053 197.733,141.036 197.917,141.036 206.766 L 141.036 215.783 142.810 217.033 C 143.785 217.721,145.264 218.410,146.097 218.564 C 146.929 218.719,147.980 219.086,148.433 219.381 C 150.647 220.821,167.551 220.795,169.864 219.349 C 170.333 219.055,171.426 218.690,172.293 218.537 C 173.160 218.385,174.346 217.872,174.929 217.397 C 175.512 216.922,176.327 216.335,176.739 216.092 C 177.859 215.433,177.896 198.540,176.780 197.307 C 175.662 196.072,171.435 194.024,170.003 194.024 C 169.288 194.024,168.307 193.746,167.822 193.407 C 166.908 192.766,156.922 192.287,153.018 192.697 M220.152 192.698 C 219.074 192.797,217.824 193.136,217.374 193.451 C 216.924 193.766,216.085 194.024,215.509 194.024 C 214.206 194.024,211.952 194.786,211.952 195.226 C 211.952 195.407,211.412 195.673,210.753 195.818 C 208.372 196.341,208.367 196.365,208.367 206.814 C 208.367 215.544,208.426 216.381,209.064 216.610 C 209.447 216.748,210.066 217.173,210.438 217.555 C 210.810 217.937,211.886 218.374,212.828 218.526 C 213.771 218.677,214.936 219.051,215.418 219.357 C 217.571 220.721,234.560 220.751,236.730 219.394 C 237.236 219.078,238.448 218.700,239.425 218.555 C 240.808 218.349,241.578 217.908,242.911 216.556 L 244.622 214.821 244.622 206.414 C 244.622 201.791,244.471 198.008,244.287 198.008 C 244.103 198.008,243.748 197.560,243.499 197.012 C 243.241 196.445,242.710 196.016,242.268 196.016 C 241.841 196.016,241.210 195.735,240.866 195.391 C 240.161 194.686,238.138 194.024,236.687 194.024 C 236.155 194.024,235.407 193.740,235.024 193.394 C 234.300 192.738,224.632 192.286,220.152 192.698 " stroke="none" fill="#53b333" fill-rule="evenodd"></path><path id="path1" d="M265.423 171.341 C 263.941 171.797,263.347 172.929,263.347 175.299 C 263.347 178.098,263.844 178.766,266.312 179.278 C 272.085 180.477,275.175 177.623,273.337 172.789 C 272.759 171.267,268.312 170.454,265.423 171.341 M300.506 171.172 C 296.566 172.042,297.305 178.827,301.394 179.327 C 306.326 179.931,308.729 178.615,308.750 175.299 C 308.771 171.874,305.268 170.120,300.506 171.172 M203.785 172.106 C 203.127 172.544,202.298 172.904,201.941 172.906 C 201.585 172.907,201.070 173.176,200.798 173.504 C 200.526 173.832,199.590 174.314,198.718 174.575 C 195.862 175.431,195.975 174.450,196.102 197.262 C 196.202 215.389,196.289 217.843,196.865 218.725 C 197.222 219.273,197.633 220.230,197.778 220.852 C 198.097 222.222,203.315 227.490,204.353 227.490 C 204.754 227.490,205.288 227.739,205.541 228.043 C 205.794 228.348,206.844 228.809,207.875 229.069 C 208.907 229.329,209.992 229.741,210.287 229.986 C 210.795 230.408,215.131 231.323,221.315 232.313 C 224.366 232.802,232.614 232.542,233.774 231.921 C 234.164 231.712,235.905 231.344,237.641 231.102 C 239.378 230.860,241.166 230.424,241.615 230.133 C 242.063 229.841,243.372 229.379,244.522 229.104 C 245.672 228.830,246.614 228.472,246.614 228.308 C 246.614 228.144,247.331 227.686,248.208 227.290 C 250.199 226.393,253.038 223.745,253.980 221.909 C 254.372 221.144,254.843 220.420,255.026 220.301 C 256.736 219.189,256.499 193.687,254.770 192.719 C 254.447 192.538,254.183 192.086,254.183 191.713 C 254.183 190.803,248.764 185.710,247.455 185.391 C 246.883 185.252,245.987 184.806,245.464 184.401 C 244.942 183.997,244.078 183.665,243.546 183.665 C 243.014 183.665,241.738 183.309,240.711 182.873 C 239.685 182.437,237.410 181.911,235.657 181.704 C 233.904 181.497,230.871 181.119,228.916 180.865 C 226.185 180.508,224.803 180.511,222.940 180.878 C 221.608 181.140,218.937 181.503,217.006 181.685 C 214.914 181.881,213.086 182.281,212.488 182.673 C 211.072 183.601,207.488 183.929,206.872 183.187 C 206.569 182.822,206.358 180.617,206.287 177.070 C 206.163 170.924,206.010 170.621,203.785 172.106 M288.463 171.892 C 288.200 172.209,287.331 172.685,286.533 172.948 C 285.735 173.212,284.831 173.678,284.525 173.984 C 284.218 174.290,283.437 174.647,282.789 174.777 C 282.036 174.928,281.479 175.361,281.244 175.978 C 280.658 177.519,280.764 228.414,281.355 229.004 C 282.142 229.791,290.685 229.656,290.993 228.852 C 291.126 228.505,291.235 215.418,291.235 199.768 L 291.235 171.315 290.089 171.315 C 289.458 171.315,288.727 171.574,288.463 171.892 M50.398 180.908 C 49.741 181.106,47.403 181.441,45.203 181.652 C 42.781 181.884,40.503 182.353,39.426 182.842 C 38.449 183.285,37.345 183.652,36.973 183.657 C 36.601 183.661,35.454 184.114,34.424 184.661 C 33.394 185.209,32.336 185.657,32.074 185.657 C 31.812 185.657,31.273 186.016,30.876 186.454 C 30.480 186.892,30.023 187.251,29.861 187.251 C 29.426 187.251,27.092 189.503,27.092 189.923 C 27.092 190.121,26.643 190.891,26.096 191.633 C 25.548 192.376,25.098 193.262,25.097 193.603 C 25.096 193.944,24.832 194.726,24.512 195.341 C 23.690 196.916,23.563 228.622,24.377 229.138 C 25.130 229.615,32.577 229.560,33.492 229.070 C 34.232 228.674,34.263 228.092,34.263 214.747 C 34.263 200.422,34.525 197.312,35.839 196.074 C 37.513 194.495,38.356 194.011,40.136 193.603 C 41.179 193.365,42.522 192.906,43.121 192.582 C 46.460 190.781,61.878 191.072,65.701 193.009 L 67.729 194.037 67.729 211.313 C 67.729 231.556,67.105 229.552,73.364 229.396 L 77.888 229.283 77.992 211.672 L 78.096 194.062 80.116 193.047 C 83.990 191.101,100.156 190.746,102.923 192.546 C 103.397 192.855,104.502 193.240,105.378 193.402 C 111.223 194.483,111.554 195.577,111.554 213.835 C 111.554 231.213,110.896 229.482,117.496 229.482 C 121.767 229.482,121.904 229.455,122.129 228.558 C 122.725 226.182,122.125 195.837,121.462 194.821 C 121.104 194.273,120.687 193.288,120.534 192.633 C 120.380 191.977,120.002 191.170,119.693 190.840 C 119.384 190.509,118.525 189.567,117.785 188.745 C 117.045 187.923,116.265 187.251,116.051 187.251 C 115.836 187.251,115.351 186.909,114.973 186.490 C 114.594 186.071,113.818 185.612,113.249 185.469 C 112.680 185.326,111.773 184.862,111.233 184.437 C 110.693 184.013,109.780 183.665,109.203 183.665 C 108.627 183.665,107.489 183.308,106.675 182.872 C 105.795 182.400,104.021 181.982,102.299 181.840 C 100.706 181.709,98.110 181.349,96.531 181.040 C 93.171 180.383,90.228 180.320,88.605 180.870 C 87.970 181.085,85.634 181.428,83.415 181.631 C 80.859 181.866,78.887 182.270,78.036 182.734 C 76.127 183.775,69.696 183.778,67.792 182.740 C 66.992 182.303,64.924 181.859,62.612 181.627 C 60.496 181.415,58.137 181.070,57.371 180.862 C 55.659 180.396,52.011 180.420,50.398 180.908 M155.578 180.905 C 154.920 181.102,152.553 181.451,150.316 181.680 C 147.972 181.919,145.525 182.424,144.539 182.872 C 143.598 183.299,142.372 183.652,141.813 183.657 C 141.254 183.661,140.626 183.830,140.418 184.031 C 140.210 184.231,139.143 184.881,138.048 185.473 C 136.952 186.066,135.697 186.754,135.259 187.002 C 134.358 187.512,132.271 189.551,132.271 189.921 C 132.271 190.054,131.850 190.719,131.337 191.397 C 130.823 192.075,130.306 193.078,130.189 193.625 C 130.072 194.173,129.686 195.690,129.331 196.996 C 128.619 199.614,128.429 211.959,129.054 214.940 C 129.788 218.437,130.670 221.165,131.255 221.751 C 131.595 222.090,131.873 222.523,131.873 222.712 C 131.873 223.372,135.985 227.038,137.013 227.294 C 137.582 227.436,138.317 227.790,138.645 228.082 C 138.974 228.373,140.034 228.822,141.000 229.079 C 141.966 229.336,143.137 229.796,143.603 230.101 C 144.068 230.406,145.721 230.836,147.277 231.057 C 148.832 231.277,150.619 231.671,151.247 231.932 C 153.104 232.703,164.618 232.615,167.530 231.808 C 168.845 231.443,170.817 230.965,171.912 230.745 C 174.520 230.223,178.924 228.713,179.681 228.082 C 180.010 227.808,180.700 227.456,181.215 227.299 C 181.729 227.142,182.493 226.717,182.911 226.355 C 185.023 224.530,186.454 222.987,186.454 222.538 C 186.454 222.262,186.813 221.711,187.251 221.315 C 187.689 220.918,188.048 220.264,188.048 219.860 C 188.048 219.457,188.413 218.071,188.860 216.780 C 190.608 211.730,189.702 196.621,187.401 192.430 C 187.100 191.882,186.649 190.986,186.400 190.438 C 185.819 189.165,182.791 186.685,180.478 185.588 C 179.492 185.120,178.416 184.520,178.088 184.255 C 177.759 183.989,176.762 183.661,175.873 183.527 C 174.984 183.392,173.712 183.011,173.047 182.679 C 172.382 182.347,170.049 181.892,167.863 181.668 C 165.676 181.444,163.273 181.084,162.524 180.869 C 160.871 180.395,157.214 180.414,155.578 180.905 M342.430 180.851 C 341.992 181.028,339.617 181.371,337.153 181.612 C 334.320 181.889,332.021 182.347,330.900 182.858 C 329.925 183.302,328.883 183.665,328.584 183.665 C 328.052 183.665,323.240 185.993,321.768 186.962 C 320.027 188.108,318.351 190.115,317.368 192.231 C 315.365 196.545,315.339 196.702,315.339 204.168 L 315.339 211.355 339.641 211.455 C 366.825 211.567,364.940 211.344,364.940 214.435 C 364.940 216.336,362.435 218.909,360.175 219.328 C 359.399 219.472,358.496 219.817,358.167 220.095 C 357.839 220.373,354.930 221.005,351.704 221.500 L 345.837 222.399 339.751 221.520 C 336.404 221.036,333.396 220.409,333.068 220.126 C 331.426 218.713,317.487 218.020,316.986 219.326 C 316.694 220.087,317.253 221.585,318.086 222.276 C 318.437 222.568,318.725 222.969,318.725 223.166 C 318.725 224.354,325.688 229.084,327.437 229.084 C 327.801 229.084,328.770 229.443,329.589 229.882 C 330.409 230.321,332.312 230.856,333.819 231.069 C 335.326 231.283,337.073 231.672,337.702 231.935 C 339.503 232.686,351.033 232.586,353.984 231.794 C 355.299 231.441,357.271 231.031,358.367 230.883 C 359.462 230.736,360.733 230.375,361.191 230.081 C 361.649 229.787,362.815 229.336,363.781 229.079 C 364.747 228.822,365.807 228.373,366.135 228.082 C 366.464 227.790,367.192 227.438,367.753 227.298 C 369.089 226.964,372.627 223.554,373.285 221.965 C 373.569 221.279,373.943 220.717,374.115 220.717 C 374.881 220.717,375.735 213.245,375.618 207.570 L 375.498 201.793 351.356 201.594 C 324.141 201.369,325.778 201.579,326.408 198.390 C 326.865 196.082,329.451 193.952,332.470 193.399 C 333.347 193.238,334.431 192.868,334.880 192.576 C 337.187 191.076,354.076 191.087,356.370 192.590 C 356.820 192.885,357.930 193.252,358.836 193.405 C 359.743 193.558,360.815 193.933,361.218 194.239 C 361.772 194.659,363.489 194.798,368.227 194.808 L 374.502 194.821 374.502 193.873 C 374.502 193.353,374.233 192.703,373.904 192.430 C 373.576 192.157,373.307 191.718,373.307 191.454 C 373.307 190.319,367.708 185.259,366.450 185.259 C 366.117 185.259,365.417 184.927,364.894 184.522 C 364.372 184.117,363.170 183.665,362.223 183.517 C 361.276 183.369,360.111 182.996,359.633 182.686 C 359.156 182.377,356.947 181.926,354.725 181.684 C 352.504 181.443,350.085 181.072,349.350 180.861 C 347.755 180.404,343.551 180.398,342.430 180.851 M263.612 183.931 C 263.096 184.447,263.304 228.483,263.825 229.004 C 264.136 229.316,265.772 229.482,268.526 229.482 C 274.264 229.482,273.705 231.704,273.705 208.901 L 273.705 189.275 272.614 188.263 C 272.013 187.706,271.251 187.250,270.920 187.249 C 270.589 187.248,269.602 186.805,268.725 186.265 C 267.849 185.726,266.846 185.278,266.496 185.271 C 266.147 185.265,265.536 184.900,265.139 184.462 C 264.375 183.617,264.042 183.501,263.612 183.931 M306.375 184.661 C 306.102 184.990,305.587 185.265,305.230 185.271 C 304.873 185.278,303.865 185.726,302.988 186.265 C 302.112 186.805,301.125 187.253,300.797 187.261 C 300.468 187.268,299.617 187.804,298.904 188.452 L 297.610 189.630 297.610 209.094 L 297.610 228.557 298.624 229.020 C 299.856 229.581,306.323 229.633,307.743 229.094 L 308.765 228.705 308.765 206.384 L 308.765 184.064 307.818 184.064 C 307.297 184.064,306.647 184.333,306.375 184.661 M164.738 191.651 C 167.146 191.879,169.477 192.300,169.917 192.587 C 170.357 192.873,171.434 193.238,172.311 193.399 C 177.929 194.429,178.578 195.949,178.411 207.686 L 178.287 216.368 176.693 217.715 C 175.817 218.455,174.472 219.180,173.705 219.325 C 172.938 219.470,172.042 219.818,171.713 220.097 C 169.004 222.397,149.318 222.423,146.614 220.130 C 146.285 219.851,145.373 219.508,144.588 219.367 C 143.794 219.225,142.467 218.497,141.600 217.725 L 140.040 216.338 139.916 207.671 C 139.749 195.995,140.352 194.536,145.811 193.409 C 146.575 193.252,147.561 192.887,148.002 192.598 C 149.666 191.512,158.184 191.029,164.738 191.651 M232.068 191.651 C 234.557 191.887,236.830 192.317,237.333 192.647 C 237.820 192.966,238.557 193.227,238.970 193.227 C 240.151 193.227,243.513 195.143,244.741 196.516 L 245.857 197.764 245.737 206.881 L 245.618 215.998 243.925 217.529 C 242.995 218.371,241.653 219.187,240.943 219.343 C 240.234 219.499,239.292 219.849,238.850 220.121 C 237.640 220.867,227.150 222.428,224.879 222.200 C 220.490 221.759,214.107 220.588,213.546 220.121 C 213.217 219.847,212.309 219.509,211.528 219.369 C 210.099 219.113,208.382 217.614,207.044 215.452 C 205.940 213.668,206.065 200.310,207.211 197.713 C 208.167 195.545,210.389 193.875,212.948 193.402 C 213.825 193.240,214.922 192.860,215.386 192.558 C 217.002 191.507,225.612 191.039,232.068 191.651 " stroke="none" fill="#f8faf8" fill-rule="evenodd"></path><path id="path2" d="M103.201 150.970 C 102.974 151.394,102.789 153.712,102.789 156.121 C 102.789 161.261,102.523 161.753,99.746 161.753 C 96.621 161.753,96.414 161.471,96.414 157.206 C 96.414 153.079,95.984 152.152,94.448 152.974 C 93.712 153.368,93.625 153.786,93.625 156.958 C 93.625 161.278,93.295 161.753,90.290 161.753 C 87.430 161.753,87.251 161.469,87.251 156.935 C 87.251 152.810,87.101 152.512,85.259 152.972 C 84.288 153.215,84.260 153.323,84.149 157.284 C 84.021 161.885,83.981 161.932,80.446 161.680 L 78.685 161.554 78.585 158.167 C 78.441 153.272,78.338 152.988,76.709 152.988 C 74.904 152.988,74.721 153.398,74.845 157.163 C 74.980 161.233,74.569 161.892,71.926 161.852 C 69.372 161.814,69.217 161.566,68.954 157.098 C 68.734 153.377,68.685 153.210,67.729 152.968 C 65.898 152.505,65.738 153.030,65.731 159.511 C 65.723 167.245,65.327 167.673,58.901 166.882 C 54.627 166.356,53.391 167.866,56.773 169.485 C 61.083 171.547,66.411 170.464,68.603 167.080 C 69.945 165.009,73.267 164.465,80.326 165.163 C 81.985 165.327,83.312 165.219,84.480 164.824 C 85.949 164.327,86.387 164.322,87.508 164.791 C 89.203 165.499,91.510 165.487,93.572 164.760 C 95.006 164.254,95.386 164.254,96.597 164.760 C 98.368 165.500,101.476 165.499,102.895 164.759 C 103.856 164.257,104.207 164.258,105.635 164.761 C 107.679 165.483,110.635 165.501,111.976 164.801 C 112.826 164.358,113.293 164.357,114.765 164.798 C 121.337 166.763,124.389 164.438,124.216 157.600 L 124.104 153.187 122.751 153.058 C 120.930 152.884,120.730 153.337,120.723 157.646 C 120.717 161.644,120.633 161.793,118.385 161.824 C 115.200 161.868,115.139 161.785,115.139 157.334 C 115.139 153.473,115.113 153.357,114.147 152.989 C 112.211 152.253,111.952 152.723,111.952 156.966 C 111.952 161.387,111.689 161.862,109.243 161.862 C 105.982 161.862,105.976 161.852,105.976 156.772 C 105.976 150.817,104.705 148.160,103.201 150.970 M130.594 152.677 C 128.019 153.214,126.692 154.958,126.399 158.190 C 125.978 162.828,129.253 165.506,135.060 165.272 C 137.815 165.161,138.048 165.213,138.048 165.942 C 138.048 166.965,135.385 167.321,131.342 166.838 C 126.775 166.292,126.077 168.480,130.384 169.838 C 133.511 170.824,139.624 170.215,140.406 168.841 C 141.975 166.081,142.720 165.338,143.930 165.326 C 144.639 165.319,145.537 165.072,145.925 164.778 C 146.518 164.328,146.899 164.336,148.315 164.827 C 154.501 166.973,160.334 163.310,159.596 157.743 C 158.982 153.114,156.221 151.761,148.874 152.488 C 144.166 152.954,144.237 152.875,144.229 157.646 C 144.223 161.420,143.991 161.986,142.626 161.553 C 141.933 161.333,141.833 160.947,141.833 158.512 C 141.833 153.145,137.969 151.138,130.594 152.677 M137.717 156.406 C 138.829 157.518,138.848 160.727,137.746 161.426 C 137.168 161.793,132.476 161.851,131.193 161.507 C 130.221 161.246,129.565 158.594,130.075 156.986 C 130.680 155.080,135.989 154.678,137.717 156.406 M154.707 155.837 C 156.607 156.836,156.918 160.694,155.153 161.364 C 153.964 161.817,149.019 161.877,148.346 161.448 C 147.260 160.756,147.261 157.484,148.347 156.398 C 149.486 155.259,153.017 154.947,154.707 155.837 M92.530 167.758 C 91.476 168.162,91.376 169.009,92.277 169.910 C 93.150 170.782,93.798 170.486,93.955 169.144 C 94.120 167.746,93.679 167.317,92.530 167.758 M96.437 167.901 C 95.701 168.788,96.066 170.319,97.012 170.319 C 97.572 170.319,97.844 170.013,97.929 169.289 C 98.083 167.961,97.126 167.071,96.437 167.901 M110.632 167.588 C 110.205 168.016,110.311 170.043,110.776 170.331 C 111.685 170.892,112.267 170.203,111.997 168.884 C 111.735 167.603,111.162 167.058,110.632 167.588 M114.210 167.995 C 113.760 168.445,113.916 170.044,114.427 170.214 C 115.684 170.633,116.733 170.026,116.733 168.878 C 116.733 167.751,115.044 167.160,114.210 167.995 M121.514 168.858 C 121.514 170.276,121.693 170.449,122.918 170.215 C 124.526 169.908,124.343 167.729,122.709 167.729 C 121.662 167.729,121.514 167.869,121.514 168.858 " stroke="none" fill="#cc4618" fill-rule="evenodd"></path><path id="path3" d="M265.804 170.629 C 261.115 171.754,261.565 179.004,266.384 179.971 C 272.128 181.124,275.113 178.616,274.032 173.546 C 273.576 171.411,273.319 171.189,270.587 170.587 C 268.196 170.060,268.175 170.060,265.804 170.629 M300.993 170.585 C 295.700 171.544,295.814 178.703,301.141 179.903 C 306.191 181.040,309.163 179.278,309.163 175.147 C 309.163 172.197,308.361 171.146,305.777 170.715 C 304.900 170.568,303.914 170.398,303.586 170.336 C 303.257 170.274,302.090 170.386,300.993 170.585 M200.725 172.822 C 198.245 174.040,196.083 175.230,195.922 175.466 C 195.761 175.703,195.627 185.299,195.624 196.790 L 195.618 217.684 196.997 220.513 C 198.403 223.398,201.760 227.110,203.446 227.645 C 203.909 227.792,204.695 228.265,205.193 228.697 C 205.691 229.129,206.474 229.483,206.933 229.484 C 207.393 229.484,208.321 229.822,208.997 230.234 C 209.672 230.646,211.179 231.114,212.344 231.274 C 213.510 231.434,215.109 231.858,215.898 232.216 C 218.012 233.175,234.682 233.180,236.454 232.222 C 237.112 231.867,238.677 231.451,239.934 231.298 C 241.190 231.145,242.320 230.856,242.444 230.655 C 242.568 230.454,243.644 230.006,244.834 229.660 C 246.024 229.314,247.102 228.861,247.231 228.653 C 247.360 228.445,248.035 228.035,248.732 227.741 C 250.054 227.185,254.183 223.606,254.183 223.016 C 254.183 222.829,254.560 222.168,255.019 221.546 C 257.750 217.853,257.796 195.722,255.081 191.777 C 254.650 191.150,254.002 190.149,253.641 189.553 C 252.494 187.659,245.854 183.267,244.137 183.267 C 243.758 183.267,242.681 182.923,241.744 182.503 C 237.430 180.568,223.541 179.309,219.519 180.488 C 218.754 180.712,216.792 181.085,215.160 181.317 C 213.528 181.548,211.486 182.098,210.623 182.539 C 207.718 184.020,207.432 183.534,207.516 177.267 C 207.617 169.701,207.387 169.551,200.725 172.822 M289.641 170.782 C 286.628 171.797,280.781 175.124,280.269 176.115 C 279.769 177.082,279.681 181.080,279.681 202.953 L 279.681 228.654 280.553 229.467 C 281.593 230.435,290.248 230.708,291.155 229.801 C 291.982 228.975,291.832 171.078,291.003 170.760 C 290.657 170.627,290.343 170.532,290.306 170.549 C 290.269 170.567,289.970 170.671,289.641 170.782 M272.247 171.544 C 273.583 172.057,274.188 175.570,273.329 177.830 C 272.796 179.231,269.432 179.926,266.312 179.278 C 263.477 178.690,262.454 176.104,263.729 172.751 C 264.346 171.128,269.325 170.423,272.247 171.544 M307.867 172.393 C 310.018 175.070,308.616 178.787,305.265 179.290 C 299.156 180.205,295.889 176.705,298.871 172.437 C 300.245 170.470,306.296 170.441,307.867 172.393 M206.287 177.070 C 206.358 180.617,206.569 182.822,206.872 183.187 C 207.488 183.929,211.072 183.601,212.488 182.673 C 213.086 182.281,214.914 181.881,217.006 181.685 C 218.937 181.503,221.608 181.140,222.940 180.878 C 224.803 180.511,226.185 180.508,228.916 180.865 C 230.871 181.119,233.904 181.497,235.657 181.704 C 237.410 181.911,239.685 182.437,240.711 182.873 C 241.738 183.309,243.014 183.665,243.546 183.665 C 244.078 183.665,244.942 183.997,245.464 184.401 C 245.987 184.806,246.883 185.252,247.455 185.391 C 248.764 185.710,254.183 190.803,254.183 191.713 C 254.183 192.086,254.447 192.538,254.770 192.719 C 256.499 193.687,256.736 219.189,255.026 220.301 C 254.843 220.420,254.372 221.144,253.980 221.909 C 253.038 223.745,250.199 226.393,248.208 227.290 C 247.331 227.686,246.614 228.144,246.614 228.308 C 246.614 228.472,245.672 228.830,244.522 229.104 C 243.372 229.379,242.063 229.841,241.615 230.133 C 241.166 230.424,239.378 230.860,237.641 231.102 C 235.905 231.344,234.164 231.712,233.774 231.921 C 232.614 232.542,224.366 232.802,221.315 232.313 C 215.131 231.323,210.795 230.408,210.287 229.986 C 209.992 229.741,208.907 229.329,207.875 229.069 C 206.844 228.809,205.794 228.348,205.541 228.043 C 205.288 227.739,204.754 227.490,204.353 227.490 C 203.315 227.490,198.097 222.222,197.778 220.852 C 197.633 220.230,197.222 219.273,196.865 218.725 C 196.289 217.843,196.202 215.389,196.102 197.262 C 195.975 174.450,195.862 175.431,198.718 174.575 C 199.590 174.314,200.526 173.832,200.798 173.504 C 201.070 173.176,201.585 172.907,201.941 172.906 C 202.298 172.904,203.127 172.544,203.785 172.106 C 206.010 170.621,206.163 170.924,206.287 177.070 M291.235 199.768 C 291.235 215.418,291.126 228.505,290.993 228.852 C 290.685 229.656,282.142 229.791,281.355 229.004 C 280.764 228.414,280.658 177.519,281.244 175.978 C 281.479 175.361,282.036 174.928,282.789 174.777 C 283.437 174.647,284.218 174.290,284.525 173.984 C 284.831 173.678,285.735 173.212,286.533 172.948 C 287.331 172.685,288.200 172.209,288.463 171.892 C 288.727 171.574,289.458 171.315,290.089 171.315 L 291.235 171.315 291.235 199.768 M373.451 171.912 C 373.194 172.582,371.496 172.727,371.116 172.112 C 370.487 171.095,368.963 171.700,368.706 173.068 C 368.144 176.065,369.544 177.115,370.354 174.303 C 370.755 172.910,370.832 172.835,370.964 173.705 C 371.188 175.181,373.058 175.132,373.230 173.646 C 373.304 173.001,373.653 172.512,374.126 172.389 C 374.552 172.277,374.900 171.990,374.900 171.750 C 374.900 171.095,373.714 171.227,373.451 171.912 M47.211 180.505 C 46.554 180.701,44.582 181.068,42.829 181.320 C 41.076 181.572,38.976 182.113,38.163 182.523 C 37.350 182.932,36.434 183.267,36.128 183.267 C 34.299 183.267,26.693 188.313,26.693 189.526 C 26.693 189.741,26.341 190.235,25.911 190.624 C 25.481 191.013,24.920 191.982,24.664 192.777 C 24.408 193.572,23.998 194.475,23.753 194.782 C 23.131 195.561,22.891 228.334,23.500 229.471 C 24.320 231.004,34.070 230.547,35.153 228.924 C 35.314 228.683,35.451 221.673,35.458 213.347 C 35.464 205.020,35.577 197.805,35.708 197.314 C 35.984 196.287,39.320 194.254,41.434 193.825 C 42.201 193.669,43.854 193.202,45.107 192.787 C 50.468 191.010,65.540 192.223,67.020 194.551 C 67.184 194.809,67.321 202.606,67.325 211.879 C 67.332 232.143,66.771 230.279,72.861 230.279 C 79.526 230.279,78.884 232.266,78.884 211.632 L 78.884 194.443 79.980 193.900 C 84.129 191.845,98.591 191.189,101.807 192.910 C 102.472 193.266,103.711 193.688,104.560 193.847 C 110.522 194.965,110.757 195.727,110.757 213.958 L 110.757 228.992 111.739 229.635 C 112.971 230.442,121.456 230.576,122.231 229.801 C 122.588 229.444,122.709 225.086,122.709 212.649 L 122.709 195.976 121.614 193.324 C 120.375 190.327,116.043 185.572,114.108 185.086 C 113.505 184.935,112.569 184.464,112.030 184.039 C 111.490 183.614,110.617 183.267,110.090 183.267 C 109.563 183.267,108.454 182.921,107.626 182.499 C 106.799 182.077,104.681 181.534,102.920 181.293 C 101.160 181.052,99.111 180.680,98.368 180.467 C 96.639 179.971,86.818 179.961,85.522 180.454 C 84.980 180.660,83.079 181.028,81.296 181.272 C 79.513 181.516,77.240 182.065,76.245 182.491 C 73.945 183.477,71.866 183.475,69.553 182.484 C 68.548 182.053,66.786 181.583,65.636 181.439 C 64.486 181.296,62.567 180.931,61.370 180.629 C 58.923 180.011,49.154 179.925,47.211 180.505 M149.602 180.969 C 147.191 181.400,144.412 182.085,143.426 182.491 C 142.440 182.897,141.051 183.342,140.339 183.479 C 139.626 183.616,139.044 183.882,139.044 184.069 C 139.044 184.255,138.640 184.528,138.147 184.674 C 136.344 185.209,131.474 189.070,131.474 189.964 C 131.474 190.171,131.227 190.546,130.925 190.796 C 126.960 194.087,127.144 217.109,131.181 222.822 C 133.176 225.645,138.227 229.482,139.950 229.482 C 140.235 229.482,141.158 229.833,141.999 230.262 C 142.841 230.691,144.358 231.155,145.370 231.292 C 146.383 231.430,148.018 231.841,149.004 232.206 C 151.337 233.068,167.364 233.191,168.823 232.357 C 169.316 232.076,170.750 231.663,172.011 231.439 C 174.217 231.047,177.820 229.852,179.482 228.961 C 179.920 228.726,180.908 228.226,181.677 227.850 C 183.383 227.015,186.683 223.871,187.042 222.738 C 187.187 222.284,187.448 221.912,187.623 221.912 C 190.934 221.912,190.884 194.741,187.566 191.035 C 187.283 190.719,186.514 189.762,185.857 188.910 C 184.250 186.826,178.693 183.267,177.046 183.267 C 176.754 183.267,175.749 182.926,174.811 182.510 C 169.734 180.253,157.710 179.518,149.602 180.969 M339.044 180.509 C 338.058 180.694,335.817 181.091,334.064 181.392 C 332.311 181.692,330.303 182.237,329.601 182.602 C 328.900 182.968,328.074 183.267,327.765 183.267 C 327.456 183.267,326.237 183.762,325.056 184.368 C 319.974 186.973,318.395 188.545,315.960 193.426 C 314.798 195.756,314.151 210.562,315.158 211.775 C 315.564 212.265,319.212 212.351,339.700 212.351 L 363.765 212.351 364.138 213.332 C 364.509 214.307,363.978 216.733,363.394 216.733 C 363.244 216.733,362.655 217.108,362.086 217.566 C 357.407 221.331,341.598 222.265,332.817 219.296 C 327.714 217.571,317.156 217.190,316.347 218.702 C 315.062 221.104,322.878 229.482,326.404 229.482 C 326.689 229.482,327.612 229.833,328.453 230.262 C 329.295 230.691,330.812 231.155,331.824 231.292 C 332.837 231.430,334.472 231.841,335.458 232.206 C 338.052 233.165,353.683 233.168,355.816 232.210 C 356.604 231.855,358.203 231.434,359.369 231.274 C 360.535 231.114,362.041 230.646,362.716 230.234 C 363.392 229.822,364.337 229.484,364.817 229.484 C 365.297 229.483,365.788 229.324,365.908 229.130 C 366.027 228.936,366.890 228.417,367.824 227.977 C 373.955 225.084,376.494 219.341,376.494 208.362 L 376.494 201.574 375.472 201.185 C 374.850 200.949,365.343 200.797,351.202 200.797 C 338.415 200.797,327.670 200.688,327.323 200.555 C 324.992 199.660,329.445 194.024,332.483 194.024 C 332.749 194.024,334.339 193.576,336.017 193.028 C 342.427 190.936,354.905 191.859,360.637 194.849 C 362.119 195.622,372.966 196.029,374.669 195.376 C 377.120 194.435,371.154 186.188,367.039 184.830 C 366.323 184.594,365.737 184.243,365.737 184.051 C 365.737 183.859,365.065 183.579,364.243 183.430 C 363.421 183.281,362.084 182.825,361.271 182.416 C 360.458 182.008,359.382 181.670,358.880 181.667 C 358.379 181.664,356.283 181.305,354.222 180.870 C 350.252 180.032,342.566 179.849,339.044 180.509 M57.371 180.862 C 58.137 181.070,60.496 181.415,62.612 181.627 C 64.924 181.859,66.992 182.303,67.792 182.740 C 69.696 183.778,76.127 183.775,78.036 182.734 C 78.887 182.270,80.859 181.866,83.415 181.631 C 85.634 181.428,87.970 181.085,88.605 180.870 C 90.228 180.320,93.171 180.383,96.531 181.040 C 98.110 181.349,100.706 181.709,102.299 181.840 C 104.021 181.982,105.795 182.400,106.675 182.872 C 107.489 183.308,108.627 183.665,109.203 183.665 C 109.780 183.665,110.693 184.013,111.233 184.437 C 111.773 184.862,112.680 185.326,113.249 185.469 C 113.818 185.612,114.594 186.071,114.973 186.490 C 115.351 186.909,115.836 187.251,116.051 187.251 C 116.265 187.251,117.045 187.923,117.785 188.745 C 118.525 189.567,119.384 190.509,119.693 190.840 C 120.002 191.170,120.380 191.977,120.534 192.633 C 120.687 193.288,121.104 194.273,121.462 194.821 C 122.125 195.837,122.725 226.182,122.129 228.558 C 121.904 229.455,121.767 229.482,117.496 229.482 C 110.896 229.482,111.554 231.213,111.554 213.835 C 111.554 195.577,111.223 194.483,105.378 193.402 C 104.502 193.240,103.397 192.855,102.923 192.546 C 100.156 190.746,83.990 191.101,80.116 193.047 L 78.096 194.062 77.992 211.672 L 77.888 229.283 73.364 229.396 C 67.105 229.552,67.729 231.556,67.729 211.313 L 67.729 194.037 65.701 193.009 C 61.878 191.072,46.460 190.781,43.121 192.582 C 42.522 192.906,41.179 193.365,40.136 193.603 C 38.356 194.011,37.513 194.495,35.839 196.074 C 34.525 197.312,34.263 200.422,34.263 214.747 C 34.263 228.092,34.232 228.674,33.492 229.070 C 32.577 229.560,25.130 229.615,24.377 229.138 C 23.563 228.622,23.690 196.916,24.512 195.341 C 24.832 194.726,25.096 193.944,25.097 193.603 C 25.098 193.262,25.548 192.376,26.096 191.633 C 26.643 190.891,27.092 190.121,27.092 189.923 C 27.092 189.503,29.426 187.251,29.861 187.251 C 30.023 187.251,30.480 186.892,30.876 186.454 C 31.273 186.016,31.812 185.657,32.074 185.657 C 32.336 185.657,33.394 185.209,34.424 184.661 C 35.454 184.114,36.601 183.661,36.973 183.657 C 37.345 183.652,38.449 183.285,39.426 182.842 C 40.503 182.353,42.781 181.884,45.203 181.652 C 47.403 181.441,49.741 181.106,50.398 180.908 C 52.011 180.420,55.659 180.396,57.371 180.862 M162.524 180.869 C 163.273 181.084,165.676 181.444,167.863 181.668 C 170.049 181.892,172.382 182.347,173.047 182.679 C 173.712 183.011,174.984 183.392,175.873 183.527 C 176.762 183.661,177.759 183.989,178.088 184.255 C 178.416 184.520,179.492 185.120,180.478 185.588 C 182.791 186.685,185.819 189.165,186.400 190.438 C 186.649 190.986,187.100 191.882,187.401 192.430 C 189.702 196.621,190.608 211.730,188.860 216.780 C 188.413 218.071,188.048 219.457,188.048 219.860 C 188.048 220.264,187.689 220.918,187.251 221.315 C 186.813 221.711,186.454 222.262,186.454 222.538 C 186.454 222.987,185.023 224.530,182.911 226.355 C 182.493 226.717,181.729 227.142,181.215 227.299 C 180.700 227.456,180.010 227.808,179.681 228.082 C 178.924 228.713,174.520 230.223,171.912 230.745 C 170.817 230.965,168.845 231.443,167.530 231.808 C 164.618 232.615,153.104 232.703,151.247 231.932 C 150.619 231.671,148.832 231.277,147.277 231.057 C 145.721 230.836,144.068 230.406,143.603 230.101 C 143.137 229.796,141.966 229.336,141.000 229.079 C 140.034 228.822,138.974 228.373,138.645 228.082 C 138.317 227.790,137.582 227.436,137.013 227.294 C 135.985 227.038,131.873 223.372,131.873 222.712 C 131.873 222.523,131.595 222.090,131.255 221.751 C 130.670 221.165,129.788 218.437,129.054 214.940 C 128.429 211.959,128.619 199.614,129.331 196.996 C 129.686 195.690,130.072 194.173,130.189 193.625 C 130.306 193.078,130.823 192.075,131.337 191.397 C 131.850 190.719,132.271 190.054,132.271 189.921 C 132.271 189.551,134.358 187.512,135.259 187.002 C 135.697 186.754,136.952 186.066,138.048 185.473 C 139.143 184.881,140.210 184.231,140.418 184.031 C 140.626 183.830,141.254 183.661,141.813 183.657 C 142.372 183.652,143.598 183.299,144.539 182.872 C 145.525 182.424,147.972 181.919,150.316 181.680 C 152.553 181.451,154.920 181.102,155.578 180.905 C 157.214 180.414,160.871 180.395,162.524 180.869 M349.350 180.861 C 350.085 181.072,352.504 181.443,354.725 181.684 C 356.947 181.926,359.156 182.377,359.633 182.686 C 360.111 182.996,361.276 183.369,362.223 183.517 C 363.170 183.665,364.372 184.117,364.894 184.522 C 365.417 184.927,366.117 185.259,366.450 185.259 C 367.708 185.259,373.307 190.319,373.307 191.454 C 373.307 191.718,373.576 192.157,373.904 192.430 C 374.233 192.703,374.502 193.353,374.502 193.873 L 374.502 194.821 368.227 194.808 C 363.489 194.798,361.772 194.659,361.218 194.239 C 360.815 193.933,359.743 193.558,358.836 193.405 C 357.930 193.252,356.820 192.885,356.370 192.590 C 354.076 191.087,337.187 191.076,334.880 192.576 C 334.431 192.868,333.347 193.238,332.470 193.399 C 329.451 193.952,326.865 196.082,326.408 198.390 C 325.778 201.579,324.141 201.369,351.356 201.594 L 375.498 201.793 375.618 207.570 C 375.735 213.245,374.881 220.717,374.115 220.717 C 373.943 220.717,373.569 221.279,373.285 221.965 C 372.627 223.554,369.089 226.964,367.753 227.298 C 367.192 227.438,366.464 227.790,366.135 228.082 C 365.807 228.373,364.747 228.822,363.781 229.079 C 362.815 229.336,361.649 229.787,361.191 230.081 C 360.733 230.375,359.462 230.736,358.367 230.883 C 357.271 231.031,355.299 231.441,353.984 231.794 C 351.033 232.586,339.503 232.686,337.702 231.935 C 337.073 231.672,335.326 231.283,333.819 231.069 C 332.312 230.856,330.409 230.321,329.589 229.882 C 328.770 229.443,327.801 229.084,327.437 229.084 C 325.688 229.084,318.725 224.354,318.725 223.166 C 318.725 222.969,318.437 222.568,318.086 222.276 C 317.253 221.585,316.694 220.087,316.986 219.326 C 317.487 218.020,331.426 218.713,333.068 220.126 C 333.396 220.409,336.404 221.036,339.751 221.520 L 345.837 222.399 351.704 221.500 C 354.930 221.005,357.839 220.373,358.167 220.095 C 358.496 219.817,359.399 219.472,360.175 219.328 C 362.435 218.909,364.940 216.336,364.940 214.435 C 364.940 211.344,366.825 211.567,339.641 211.455 L 315.339 211.355 315.339 204.168 C 315.339 196.702,315.365 196.545,317.368 192.231 C 318.351 190.115,320.027 188.108,321.768 186.962 C 323.240 185.993,328.052 183.665,328.584 183.665 C 328.883 183.665,329.925 183.302,330.900 182.858 C 332.021 182.347,334.320 181.889,337.153 181.612 C 339.617 181.371,341.992 181.028,342.430 180.851 C 343.551 180.398,347.755 180.404,349.350 180.861 M262.962 184.038 C 262.215 185.433,262.412 228.311,263.170 229.393 C 263.752 230.224,264.084 230.279,268.526 230.279 C 275.144 230.279,274.504 232.564,274.493 208.975 C 274.483 186.119,275.107 188.663,268.725 185.465 C 263.840 183.017,263.547 182.944,262.962 184.038 M305.891 184.045 C 305.321 184.493,304.737 184.861,304.593 184.861 C 303.796 184.861,298.869 187.529,298.108 188.373 L 297.211 189.367 297.211 209.203 L 297.211 229.038 298.097 229.659 C 299.236 230.457,307.442 230.553,308.494 229.781 C 309.121 229.320,309.164 227.557,309.068 206.375 L 308.964 183.466 307.946 183.348 C 307.370 183.280,306.479 183.583,305.891 184.045 M265.139 184.462 C 265.536 184.900,266.147 185.265,266.496 185.271 C 266.846 185.278,267.849 185.726,268.725 186.265 C 269.602 186.805,270.589 187.248,270.920 187.249 C 271.251 187.250,272.013 187.706,272.614 188.263 L 273.705 189.275 273.705 208.901 C 273.705 231.704,274.264 229.482,268.526 229.482 C 265.772 229.482,264.136 229.316,263.825 229.004 C 263.304 228.483,263.096 184.447,263.612 183.931 C 264.042 183.501,264.375 183.617,265.139 184.462 M308.765 206.384 L 308.765 228.705 307.743 229.094 C 306.323 229.633,299.856 229.581,298.624 229.020 L 297.610 228.557 297.610 209.094 L 297.610 189.630 298.904 188.452 C 299.617 187.804,300.468 187.268,300.797 187.261 C 301.125 187.253,302.112 186.805,302.988 186.265 C 303.865 185.726,304.873 185.278,305.230 185.271 C 305.587 185.265,306.102 184.990,306.375 184.661 C 306.647 184.333,307.297 184.064,307.818 184.064 L 308.765 184.064 308.765 206.384 M152.390 191.708 C 150.418 191.909,148.444 192.310,148.002 192.598 C 147.561 192.887,146.575 193.252,145.811 193.409 C 140.352 194.536,139.749 195.995,139.916 207.671 L 140.040 216.338 141.600 217.725 C 142.467 218.497,143.794 219.225,144.588 219.367 C 145.373 219.508,146.285 219.851,146.614 220.130 C 149.318 222.423,169.004 222.397,171.713 220.097 C 172.042 219.818,172.938 219.470,173.705 219.325 C 174.472 219.180,175.817 218.455,176.693 217.715 L 178.287 216.368 178.411 207.686 C 178.578 195.949,177.929 194.429,172.311 193.399 C 171.434 193.238,170.357 192.873,169.917 192.587 C 168.226 191.487,159.061 191.028,152.390 191.708 M219.968 191.677 C 217.912 191.859,215.850 192.256,215.386 192.558 C 214.922 192.860,213.825 193.240,212.948 193.402 C 210.389 193.875,208.167 195.545,207.211 197.713 C 206.065 200.310,205.940 213.668,207.044 215.452 C 208.382 217.614,210.099 219.113,211.528 219.369 C 212.309 219.509,213.217 219.847,213.546 220.121 C 214.107 220.588,220.490 221.759,224.879 222.200 C 227.150 222.428,237.640 220.867,238.850 220.121 C 239.292 219.849,240.234 219.499,240.943 219.343 C 241.653 219.187,242.995 218.371,243.925 217.529 L 245.618 215.998 245.737 206.881 L 245.857 197.764 244.741 196.516 C 243.513 195.143,240.151 193.227,238.970 193.227 C 238.557 193.227,237.820 192.966,237.333 192.647 C 235.602 191.512,227.139 191.040,219.968 191.677 M167.343 192.649 C 168.542 192.988,170.289 193.452,171.227 193.679 C 173.465 194.223,176.280 195.818,177.308 197.124 C 178.545 198.697,178.356 215.681,177.092 216.548 C 176.653 216.849,176.026 217.353,175.697 217.669 C 174.858 218.475,169.470 220.270,167.111 220.529 C 166.027 220.649,163.829 220.946,162.227 221.191 C 159.353 221.629,157.611 221.504,150.199 220.329 C 147.164 219.847,143.588 218.490,141.985 217.210 L 140.637 216.135 140.644 206.773 C 140.647 201.624,140.781 197.213,140.942 196.972 C 143.458 193.204,159.832 190.522,167.343 192.649 M236.255 193.054 C 245.113 195.737,245.418 196.192,245.418 206.715 L 245.418 214.775 243.571 216.750 C 242.555 217.836,241.396 218.725,240.996 218.725 C 240.596 218.725,239.326 219.097,238.174 219.551 C 236.040 220.392,225.631 221.735,224.358 221.333 C 223.999 221.220,222.002 220.941,219.920 220.713 C 215.414 220.220,211.248 218.863,209.232 217.233 L 207.769 216.049 207.641 207.674 C 207.500 198.455,207.804 196.244,209.272 195.788 C 209.760 195.637,210.608 195.215,211.155 194.851 C 211.703 194.486,213.048 193.947,214.143 193.651 C 215.239 193.356,216.942 192.883,217.928 192.600 C 221.437 191.593,232.322 191.863,236.255 193.054 " stroke="none" fill="#acd49c" fill-rule="evenodd"></path><path id="path4" d="M370.329 170.144 C 367.737 171.640,367.117 173.423,368.152 176.393 C 368.960 178.711,373.841 179.069,375.806 176.955 C 377.760 174.853,377.157 171.424,374.701 170.671 C 374.263 170.536,373.546 170.105,373.108 169.713 C 372.337 169.023,372.245 169.037,370.329 170.144 M267.131 169.697 C 266.693 169.885,265.610 170.232,264.723 170.469 C 261.103 171.436,261.025 180.072,264.636 180.082 C 265.132 180.083,266.051 180.352,266.679 180.680 C 267.307 181.007,268.138 181.275,268.526 181.275 C 268.914 181.275,269.745 181.007,270.373 180.680 C 271.000 180.352,271.913 180.083,272.401 180.082 C 274.209 180.077,275.719 176.185,274.889 173.670 C 274.107 171.300,273.364 170.568,271.315 170.148 C 270.329 169.946,269.163 169.686,268.725 169.569 C 268.287 169.452,267.570 169.510,267.131 169.697 M300.097 170.283 C 297.549 171.110,296.842 172.200,296.826 175.324 C 296.799 180.611,301.947 182.541,308.223 179.595 C 310.951 178.315,310.470 171.589,307.578 170.580 C 305.444 169.837,301.907 169.696,300.097 170.283 M203.660 170.540 C 203.154 170.743,202.469 171.180,202.138 171.510 C 201.807 171.841,201.215 172.112,200.822 172.112 C 200.429 172.112,199.666 172.459,199.126 172.884 C 198.586 173.308,197.661 173.777,197.070 173.926 C 196.479 174.074,195.816 174.530,195.597 174.938 C 194.849 176.336,195.291 219.292,196.062 220.178 C 196.416 220.584,196.819 221.395,196.958 221.980 C 197.302 223.429,201.702 227.761,203.154 228.080 C 203.793 228.221,204.411 228.584,204.528 228.888 C 204.644 229.192,205.493 229.643,206.414 229.891 C 207.335 230.139,208.318 230.572,208.600 230.854 C 208.881 231.135,210.166 231.485,211.456 231.631 C 212.745 231.776,214.236 232.204,214.769 232.581 C 216.203 233.597,235.952 233.619,237.496 232.607 C 238.050 232.245,239.530 231.819,240.785 231.662 C 242.041 231.506,243.293 231.152,243.568 230.877 C 243.844 230.601,244.633 230.252,245.323 230.101 C 246.012 229.949,246.988 229.504,247.491 229.111 C 247.995 228.718,248.804 228.272,249.291 228.119 C 250.221 227.828,254.582 223.843,254.582 223.284 C 254.582 223.106,254.925 222.590,255.345 222.137 C 257.545 219.768,258.829 200.615,257.135 195.446 C 255.470 190.364,251.515 185.329,248.606 184.585 C 248.058 184.445,247.430 184.114,247.211 183.849 C 246.992 183.585,245.941 183.159,244.875 182.902 C 243.809 182.646,242.702 182.201,242.416 181.915 C 242.130 181.629,240.844 181.285,239.558 181.151 C 238.273 181.016,236.510 180.591,235.642 180.205 C 233.363 179.191,219.283 179.165,217.030 180.170 C 216.207 180.537,214.460 180.959,213.147 181.107 C 211.723 181.268,210.418 181.675,209.911 182.115 C 208.539 183.304,208.367 182.720,208.367 176.897 C 208.367 170.112,207.533 168.986,203.660 170.540 M270.587 170.587 C 273.319 171.189,273.576 171.411,274.032 173.546 C 275.113 178.616,272.128 181.124,266.384 179.971 C 261.565 179.004,261.115 171.754,265.804 170.629 C 268.175 170.060,268.196 170.060,270.587 170.587 M289.243 170.369 C 288.708 170.536,287.937 170.879,284.462 172.498 C 282.306 173.502,280.753 174.484,279.938 175.360 L 279.084 176.276 279.084 202.902 L 279.084 229.528 280.080 230.293 C 280.941 230.954,281.766 231.059,286.176 231.067 L 291.276 231.076 291.853 229.694 C 292.551 228.022,292.729 172.949,292.042 171.141 C 291.661 170.140,290.767 169.893,289.243 170.369 M305.777 170.715 C 308.361 171.146,309.163 172.197,309.163 175.147 C 309.163 179.278,306.191 181.040,301.141 179.903 C 294.481 178.403,296.866 169.071,303.586 170.336 C 303.914 170.398,304.900 170.568,305.777 170.715 M207.280 171.479 C 207.449 171.717,207.555 174.322,207.516 177.267 C 207.432 183.534,207.718 184.020,210.623 182.539 C 211.486 182.098,213.528 181.548,215.160 181.317 C 216.792 181.085,218.754 180.712,219.519 180.488 C 223.541 179.309,237.430 180.568,241.744 182.503 C 242.681 182.923,243.758 183.267,244.137 183.267 C 245.854 183.267,252.494 187.659,253.641 189.553 C 254.002 190.149,254.650 191.150,255.081 191.777 C 257.796 195.722,257.750 217.853,255.019 221.546 C 254.560 222.168,254.183 222.829,254.183 223.016 C 254.183 223.606,250.054 227.185,248.732 227.741 C 248.035 228.035,247.360 228.445,247.231 228.653 C 247.102 228.861,246.024 229.314,244.834 229.660 C 243.644 230.006,242.568 230.454,242.444 230.655 C 242.320 230.856,241.190 231.145,239.934 231.298 C 238.677 231.451,237.112 231.867,236.454 232.222 C 234.682 233.180,218.012 233.175,215.898 232.216 C 215.109 231.858,213.510 231.434,212.344 231.274 C 211.179 231.114,209.672 230.646,208.997 230.234 C 208.321 229.822,207.393 229.484,206.933 229.484 C 206.474 229.483,205.691 229.129,205.193 228.697 C 204.695 228.265,203.909 227.792,203.446 227.645 C 201.760 227.110,198.403 223.398,196.997 220.513 L 195.618 217.684 195.624 196.790 C 195.627 185.299,195.761 175.703,195.922 175.466 C 196.083 175.230,198.245 174.040,200.725 172.822 C 205.135 170.657,206.498 170.377,207.280 171.479 M291.003 170.760 C 291.832 171.078,291.982 228.975,291.155 229.801 C 290.248 230.708,281.593 230.435,280.553 229.467 L 279.681 228.654 279.681 202.953 C 279.681 181.080,279.769 177.082,280.269 176.115 C 280.781 175.124,286.628 171.797,289.641 170.782 C 289.970 170.671,290.269 170.567,290.306 170.549 C 290.343 170.532,290.657 170.627,291.003 170.760 M374.900 171.750 C 374.900 171.990,374.552 172.277,374.126 172.389 C 373.653 172.512,373.304 173.001,373.230 173.646 C 373.058 175.132,371.188 175.181,370.964 173.705 C 370.832 172.835,370.755 172.910,370.354 174.303 C 369.544 177.115,368.144 176.065,368.706 173.068 C 368.963 171.700,370.487 171.095,371.116 172.112 C 371.496 172.727,373.194 172.582,373.451 171.912 C 373.714 171.227,374.900 171.095,374.900 171.750 M47.012 179.675 C 46.026 179.863,44.239 180.300,43.041 180.646 C 41.843 180.992,40.356 181.275,39.738 181.275 C 39.119 181.275,38.127 181.617,37.534 182.034 C 36.940 182.452,35.800 182.905,35.000 183.041 C 34.200 183.177,33.337 183.541,33.080 183.849 C 32.824 184.158,32.087 184.527,31.443 184.668 C 30.799 184.810,30.088 185.269,29.863 185.690 C 29.638 186.110,29.300 186.454,29.112 186.454 C 28.690 186.454,26.295 188.659,26.295 189.047 C 26.295 189.201,25.847 189.860,25.299 190.511 C 24.751 191.162,24.303 192.039,24.303 192.461 C 24.303 192.882,24.141 193.227,23.943 193.227 C 22.623 193.227,21.974 228.680,23.264 230.378 C 23.721 230.980,24.510 231.076,29.028 231.076 C 36.573 231.076,35.857 232.869,35.857 213.970 C 35.857 197.284,35.910 196.815,37.915 195.995 C 38.645 195.697,39.469 195.231,39.746 194.961 C 40.022 194.691,41.098 194.362,42.136 194.230 C 43.174 194.098,44.638 193.683,45.388 193.309 C 47.445 192.284,61.303 192.298,62.440 193.327 C 62.863 193.710,63.591 194.024,64.056 194.024 C 64.522 194.024,65.315 194.211,65.818 194.441 L 66.733 194.857 66.610 211.672 C 66.499 226.937,66.550 228.605,67.171 229.781 L 67.855 231.076 72.902 231.076 C 77.714 231.076,77.990 231.031,78.847 230.119 L 79.746 229.163 79.698 212.150 C 79.648 194.030,79.649 194.024,81.591 194.024 C 82.150 194.024,82.953 193.710,83.377 193.327 C 84.493 192.317,99.915 192.279,101.060 193.283 C 101.463 193.637,102.642 194.049,103.680 194.198 C 104.719 194.347,105.801 194.703,106.086 194.987 C 106.370 195.272,107.256 195.741,108.054 196.029 C 110.013 196.738,109.949 196.137,109.955 213.664 L 109.960 229.122 111.014 230.099 C 112.020 231.031,112.305 231.076,117.210 231.076 L 122.351 231.076 122.929 229.694 C 124.283 226.454,123.546 193.926,122.100 193.117 C 121.778 192.937,121.514 192.455,121.514 192.046 C 121.514 190.597,115.494 184.462,114.073 184.462 C 113.743 184.462,113.016 184.104,112.459 183.665 C 111.902 183.227,110.960 182.869,110.366 182.869 C 109.772 182.869,108.902 182.536,108.433 182.129 C 107.911 181.676,106.647 181.292,105.174 181.138 C 103.851 181.000,102.191 180.575,101.484 180.194 C 99.578 179.166,85.466 179.152,82.969 180.176 C 82.038 180.557,80.245 180.983,78.985 181.123 C 77.725 181.262,76.134 181.712,75.451 182.122 C 73.945 183.027,71.596 183.093,70.757 182.254 C 70.418 181.915,68.632 181.394,66.788 181.096 C 64.943 180.797,63.031 180.337,62.539 180.074 C 61.444 179.488,49.594 179.183,47.012 179.675 M152.590 179.662 C 151.384 179.837,149.518 180.272,148.443 180.628 C 147.367 180.984,145.871 181.275,145.119 181.275 C 144.354 181.275,143.304 181.626,142.738 182.072 C 142.181 182.510,141.346 182.871,140.883 182.874 C 140.419 182.878,139.592 183.138,139.044 183.452 C 138.496 183.767,137.375 184.321,136.554 184.685 C 135.732 185.048,135.060 185.477,135.060 185.637 C 135.060 185.797,134.612 186.132,134.064 186.382 C 133.516 186.631,133.068 187.096,133.068 187.415 C 133.068 187.733,132.718 188.105,132.291 188.241 C 131.864 188.376,131.411 188.813,131.285 189.211 C 131.159 189.609,130.701 190.255,130.269 190.647 C 129.836 191.038,129.482 191.766,129.482 192.264 C 129.482 192.763,129.175 193.477,128.800 193.853 C 127.177 195.476,126.978 218.068,128.578 219.057 C 128.821 219.208,129.152 219.867,129.313 220.522 C 129.842 222.671,133.892 227.209,136.109 228.135 C 136.847 228.444,137.450 228.859,137.450 229.057 C 137.450 229.256,138.033 229.542,138.745 229.693 C 139.457 229.843,140.578 230.287,141.235 230.679 C 141.892 231.070,143.412 231.521,144.612 231.681 C 145.812 231.841,147.238 232.263,147.782 232.619 C 149.284 233.604,169.042 233.588,170.518 232.601 C 171.066 232.234,172.410 231.812,173.506 231.661 C 175.653 231.367,178.543 230.226,181.894 228.349 C 183.979 227.181,187.251 224.139,187.251 223.368 C 187.251 223.111,187.610 222.677,188.048 222.403 C 188.486 222.130,188.845 221.591,188.845 221.206 C 188.845 220.821,189.248 219.792,189.740 218.918 C 191.131 216.453,191.132 196.612,189.741 194.375 C 189.248 193.582,188.845 192.584,188.845 192.156 C 188.845 191.729,188.396 190.989,187.849 190.513 C 187.301 190.036,186.853 189.389,186.853 189.073 C 186.853 188.758,186.494 188.386,186.056 188.247 C 185.618 188.108,185.259 187.732,185.259 187.411 C 185.259 187.090,184.945 186.713,184.562 186.573 C 184.178 186.433,183.437 185.901,182.914 185.390 C 182.391 184.880,181.651 184.462,181.269 184.462 C 180.888 184.462,180.356 184.198,180.088 183.875 C 179.820 183.552,178.947 183.172,178.147 183.030 C 177.348 182.888,176.134 182.435,175.451 182.023 C 174.768 181.612,173.602 181.269,172.861 181.262 C 172.120 181.255,170.528 180.896,169.323 180.464 C 166.845 179.576,156.559 179.083,152.590 179.662 M339.044 179.676 C 337.620 179.861,335.737 180.288,334.861 180.626 C 333.984 180.964,332.587 181.248,331.757 181.257 C 330.926 181.267,329.761 181.617,329.167 182.034 C 328.573 182.452,327.433 182.905,326.634 183.041 C 325.834 183.177,324.970 183.541,324.714 183.849 C 324.457 184.158,323.710 184.529,323.053 184.673 C 322.396 184.818,321.757 185.201,321.632 185.526 C 321.507 185.851,320.982 186.278,320.464 186.475 C 319.946 186.672,319.522 187.106,319.522 187.440 C 319.522 187.774,319.247 188.048,318.912 188.048 C 318.576 188.048,318.189 188.362,318.051 188.745 C 317.913 189.128,317.473 189.761,317.073 190.150 C 316.672 190.540,316.228 191.347,316.087 191.943 C 315.945 192.540,315.540 193.360,315.186 193.766 C 314.257 194.831,313.996 211.334,314.889 212.550 C 315.463 213.331,315.934 213.347,339.605 213.347 C 364.652 213.347,364.504 213.337,363.896 214.921 C 363.470 216.033,360.294 218.265,358.736 218.548 C 357.875 218.704,356.633 219.121,355.976 219.476 C 354.176 220.445,336.529 220.433,335.060 219.461 C 334.512 219.098,333.312 218.681,332.393 218.533 C 331.475 218.385,330.512 218.009,330.253 217.698 C 329.766 217.111,317.189 216.829,315.770 217.373 C 315.096 217.632,314.884 219.716,315.494 220.092 C 315.689 220.213,315.972 220.804,316.123 221.407 C 316.430 222.630,316.637 222.906,319.275 225.598 C 320.968 227.325,322.332 228.237,325.100 229.494 C 325.647 229.743,326.723 230.268,327.490 230.662 C 328.257 231.055,329.871 231.505,331.076 231.663 C 332.281 231.820,333.715 232.245,334.263 232.608 C 335.766 233.602,355.481 233.597,356.972 232.602 C 357.520 232.236,359.008 231.811,360.279 231.657 C 361.550 231.503,362.823 231.144,363.107 230.860 C 363.392 230.575,364.362 230.144,365.262 229.901 C 366.162 229.659,367.008 229.283,367.142 229.067 C 367.276 228.850,367.956 228.435,368.653 228.143 C 370.080 227.547,373.705 224.045,373.705 223.264 C 373.705 222.984,374.062 222.504,374.499 222.198 C 374.936 221.892,375.415 221.031,375.565 220.285 C 375.714 219.539,376.061 218.703,376.335 218.428 C 377.831 216.933,377.622 201.685,376.096 200.914 C 375.327 200.525,369.673 200.409,351.295 200.404 L 327.490 200.398 327.490 199.080 C 327.490 196.931,331.756 194.024,334.910 194.024 C 335.552 194.024,336.521 193.710,337.063 193.327 C 338.485 192.320,352.649 192.283,354.183 193.282 C 354.731 193.638,355.978 194.049,356.954 194.194 C 357.930 194.339,359.302 194.813,360.004 195.246 C 361.170 195.967,361.890 196.025,368.389 195.926 L 375.498 195.817 375.478 193.679 C 375.465 192.234,375.260 191.394,374.846 191.089 C 374.509 190.841,374.007 190.212,373.730 189.692 C 372.904 188.141,368.647 184.463,367.678 184.463 C 367.322 184.462,366.811 184.198,366.543 183.875 C 366.275 183.552,365.401 183.172,364.601 183.030 C 363.802 182.888,362.610 182.458,361.952 182.074 C 361.295 181.690,359.711 181.260,358.432 181.119 C 357.153 180.977,355.562 180.580,354.897 180.236 C 353.462 179.494,343.230 179.132,339.044 179.676 M61.370 180.629 C 62.567 180.931,64.486 181.296,65.636 181.439 C 66.786 181.583,68.548 182.053,69.553 182.484 C 71.866 183.475,73.945 183.477,76.245 182.491 C 77.240 182.065,79.513 181.516,81.296 181.272 C 83.079 181.028,84.980 180.660,85.522 180.454 C 86.818 179.961,96.639 179.971,98.368 180.467 C 99.111 180.680,101.160 181.052,102.920 181.293 C 104.681 181.534,106.799 182.077,107.626 182.499 C 108.454 182.921,109.563 183.267,110.090 183.267 C 110.617 183.267,111.490 183.614,112.030 184.039 C 112.569 184.464,113.505 184.935,114.108 185.086 C 116.043 185.572,120.375 190.327,121.614 193.324 L 122.709 195.976 122.709 212.649 C 122.709 225.086,122.588 229.444,122.231 229.801 C 121.456 230.576,112.971 230.442,111.739 229.635 L 110.757 228.992 110.757 213.958 C 110.757 195.727,110.522 194.965,104.560 193.847 C 103.711 193.688,102.472 193.266,101.807 192.910 C 98.591 191.189,84.129 191.845,79.980 193.900 L 78.884 194.443 78.884 211.632 C 78.884 232.266,79.526 230.279,72.861 230.279 C 66.771 230.279,67.332 232.143,67.325 211.879 C 67.321 202.606,67.184 194.809,67.020 194.551 C 65.540 192.223,50.468 191.010,45.107 192.787 C 43.854 193.202,42.201 193.669,41.434 193.825 C 39.320 194.254,35.984 196.287,35.708 197.314 C 35.577 197.805,35.464 205.020,35.458 213.347 C 35.451 221.673,35.314 228.683,35.153 228.924 C 34.070 230.547,24.320 231.004,23.500 229.471 C 22.891 228.334,23.131 195.561,23.753 194.782 C 23.998 194.475,24.408 193.572,24.664 192.777 C 24.920 191.982,25.481 191.013,25.911 190.624 C 26.341 190.235,26.693 189.741,26.693 189.526 C 26.693 188.313,34.299 183.267,36.128 183.267 C 36.434 183.267,37.350 182.932,38.163 182.523 C 38.976 182.113,41.076 181.572,42.829 181.320 C 44.582 181.068,46.554 180.701,47.211 180.505 C 49.154 179.925,58.923 180.011,61.370 180.629 M168.127 180.909 C 170.867 181.373,173.874 182.093,174.811 182.510 C 175.749 182.926,176.754 183.267,177.046 183.267 C 178.693 183.267,184.250 186.826,185.857 188.910 C 186.514 189.762,187.283 190.719,187.566 191.035 C 190.884 194.741,190.934 221.912,187.623 221.912 C 187.448 221.912,187.187 222.284,187.042 222.738 C 186.683 223.871,183.383 227.015,181.677 227.850 C 180.908 228.226,179.920 228.726,179.482 228.961 C 177.820 229.852,174.217 231.047,172.011 231.439 C 170.750 231.663,169.316 232.076,168.823 232.357 C 167.364 233.191,151.337 233.068,149.004 232.206 C 148.018 231.841,146.383 231.430,145.370 231.292 C 144.358 231.155,142.841 230.691,141.999 230.262 C 141.158 229.833,140.235 229.482,139.950 229.482 C 138.227 229.482,133.176 225.645,131.181 222.822 C 127.144 217.109,126.960 194.087,130.925 190.796 C 131.227 190.546,131.474 190.171,131.474 189.964 C 131.474 189.070,136.344 185.209,138.147 184.674 C 138.640 184.528,139.044 184.255,139.044 184.069 C 139.044 183.882,139.626 183.616,140.339 183.479 C 141.051 183.342,142.440 182.897,143.426 182.491 C 148.906 180.236,159.970 179.527,168.127 180.909 M354.222 180.870 C 356.283 181.305,358.379 181.664,358.880 181.667 C 359.382 181.670,360.458 182.008,361.271 182.416 C 362.084 182.825,363.421 183.281,364.243 183.430 C 365.065 183.579,365.737 183.859,365.737 184.051 C 365.737 184.243,366.323 184.594,367.039 184.830 C 371.154 186.188,377.120 194.435,374.669 195.376 C 372.966 196.029,362.119 195.622,360.637 194.849 C 354.905 191.859,342.427 190.936,336.017 193.028 C 334.339 193.576,332.749 194.024,332.483 194.024 C 329.445 194.024,324.992 199.660,327.323 200.555 C 327.670 200.688,338.415 200.797,351.202 200.797 C 365.343 200.797,374.850 200.949,375.472 201.185 L 376.494 201.574 376.494 208.362 C 376.494 219.341,373.955 225.084,367.824 227.977 C 366.890 228.417,366.027 228.936,365.908 229.130 C 365.788 229.324,365.297 229.483,364.817 229.484 C 364.337 229.484,363.392 229.822,362.716 230.234 C 362.041 230.646,360.535 231.114,359.369 231.274 C 358.203 231.434,356.604 231.855,355.816 232.210 C 353.683 233.168,338.052 233.165,335.458 232.206 C 334.472 231.841,332.837 231.430,331.824 231.292 C 330.812 231.155,329.295 230.691,328.453 230.262 C 327.612 229.833,326.689 229.482,326.404 229.482 C 322.878 229.482,315.062 221.104,316.347 218.702 C 317.156 217.190,327.714 217.571,332.817 219.296 C 341.598 222.265,357.407 221.331,362.086 217.566 C 362.655 217.108,363.244 216.733,363.394 216.733 C 363.978 216.733,364.509 214.307,364.138 213.332 L 363.765 212.351 339.700 212.351 C 319.212 212.351,315.564 212.265,315.158 211.775 C 314.151 210.562,314.798 195.756,315.960 193.426 C 318.395 188.545,319.974 186.973,325.056 184.368 C 326.237 183.762,327.456 183.267,327.765 183.267 C 328.074 183.267,328.900 182.968,329.601 182.602 C 330.303 182.237,332.311 181.692,334.064 181.392 C 335.817 181.091,338.058 180.694,339.044 180.509 C 342.566 179.849,350.252 180.032,354.222 180.870 M262.412 183.597 C 261.264 184.866,261.423 227.857,262.582 229.734 L 263.412 231.076 268.459 231.071 L 273.506 231.066 274.402 229.682 L 275.299 228.298 275.299 208.771 C 275.299 196.018,275.161 189.243,274.900 189.243 C 274.681 189.243,274.502 189.008,274.502 188.721 C 274.502 187.849,272.936 186.454,271.959 186.454 C 271.453 186.454,270.719 186.099,270.326 185.665 C 269.933 185.231,269.009 184.763,268.272 184.625 C 267.535 184.487,266.932 184.243,266.932 184.083 C 266.932 182.950,263.347 182.564,262.412 183.597 M305.532 183.605 C 305.009 184.009,304.101 184.458,303.514 184.601 C 302.927 184.745,302.186 185.122,301.869 185.439 C 301.551 185.757,300.777 186.138,300.148 186.287 C 299.519 186.435,298.511 187.015,297.908 187.576 L 296.813 188.595 296.813 209.229 L 296.813 229.862 297.758 230.481 C 299.519 231.636,308.799 231.159,309.445 229.880 C 310.156 228.473,310.191 184.056,309.482 183.347 C 308.765 182.630,306.608 182.771,305.532 183.605 M268.725 185.465 C 275.107 188.663,274.483 186.119,274.493 208.975 C 274.504 232.564,275.144 230.279,268.526 230.279 C 261.884 230.279,262.550 232.910,262.550 206.658 C 262.550 179.983,261.943 182.066,268.725 185.465 M309.068 206.375 C 309.164 227.557,309.121 229.320,308.494 229.781 C 307.442 230.553,299.236 230.457,298.097 229.659 L 297.211 229.038 297.211 209.203 L 297.211 189.367 298.108 188.373 C 298.869 187.529,303.796 184.861,304.593 184.861 C 304.737 184.861,305.321 184.493,305.891 184.045 C 306.479 183.583,307.370 183.280,307.946 183.348 L 308.964 183.466 309.068 206.375 M148.542 193.232 C 144.979 194.283,141.641 195.925,140.942 196.972 C 140.781 197.213,140.647 201.624,140.644 206.773 L 140.637 216.135 141.985 217.210 C 143.588 218.490,147.164 219.847,150.199 220.329 C 157.611 221.504,159.353 221.629,162.227 221.191 C 163.829 220.946,166.027 220.649,167.111 220.529 C 169.470 220.270,174.858 218.475,175.697 217.669 C 176.026 217.353,176.653 216.849,177.092 216.548 C 178.356 215.681,178.545 198.697,177.308 197.124 C 176.280 195.818,173.465 194.223,171.227 193.679 C 170.289 193.452,168.542 192.988,167.343 192.649 C 163.380 191.527,153.259 191.841,148.542 193.232 M217.928 192.600 C 216.942 192.883,215.239 193.356,214.143 193.651 C 213.048 193.947,211.703 194.486,211.155 194.851 C 210.608 195.215,209.760 195.637,209.272 195.788 C 207.804 196.244,207.500 198.455,207.641 207.674 L 207.769 216.049 209.232 217.233 C 211.248 218.863,215.414 220.220,219.920 220.713 C 222.002 220.941,223.999 221.220,224.358 221.333 C 225.631 221.735,236.040 220.392,238.174 219.551 C 239.326 219.097,240.596 218.725,240.996 218.725 C 241.396 218.725,242.555 217.836,243.571 216.750 L 245.418 214.775 245.418 206.715 C 245.418 196.192,245.113 195.737,236.255 193.054 C 232.322 191.863,221.437 191.593,217.928 192.600 M167.822 193.407 C 168.307 193.746,169.288 194.024,170.003 194.024 C 171.435 194.024,175.662 196.072,176.780 197.307 C 177.896 198.540,177.859 215.433,176.739 216.092 C 176.327 216.335,175.512 216.922,174.929 217.397 C 174.346 217.872,173.160 218.385,172.293 218.537 C 171.426 218.690,170.333 219.055,169.864 219.349 C 167.551 220.795,150.647 220.821,148.433 219.381 C 147.980 219.086,146.929 218.719,146.097 218.564 C 145.264 218.410,143.785 217.721,142.810 217.033 L 141.036 215.783 141.036 206.766 C 141.036 197.917,141.053 197.733,141.932 196.948 C 143.411 195.627,146.908 194.024,148.310 194.024 C 149.033 194.024,149.991 193.767,150.439 193.453 C 152.117 192.277,166.157 192.240,167.822 193.407 M235.024 193.394 C 235.407 193.740,236.155 194.024,236.687 194.024 C 238.138 194.024,240.161 194.686,240.866 195.391 C 241.210 195.735,241.841 196.016,242.268 196.016 C 242.710 196.016,243.241 196.445,243.499 197.012 C 243.748 197.560,244.103 198.008,244.287 198.008 C 244.471 198.008,244.622 201.791,244.622 206.414 L 244.622 214.821 242.911 216.556 C 241.578 217.908,240.808 218.349,239.425 218.555 C 238.448 218.700,237.236 219.078,236.730 219.394 C 234.560 220.751,217.571 220.721,215.418 219.357 C 214.936 219.051,213.771 218.677,212.828 218.526 C 211.886 218.374,210.810 217.937,210.438 217.555 C 210.066 217.173,209.447 216.748,209.064 216.610 C 208.426 216.381,208.367 215.544,208.367 206.814 C 208.367 196.365,208.372 196.341,210.753 195.818 C 211.412 195.673,211.952 195.407,211.952 195.226 C 211.952 194.786,214.206 194.024,215.509 194.024 C 216.085 194.024,216.924 193.766,217.374 193.451 C 219.057 192.272,233.731 192.224,235.024 193.394 " stroke="none" fill="#92cc82" fill-rule="evenodd"></path></g></svg>